<?xml version="1.0" encoding="UTF-8"?>
<svg version="1.1" viewBox="0 0 2048 1877" width="144" height="132" xmlns="http://www.w3.org/2000/svg">
<path transform="translate(0)" d="m0 0h2048v1877h-2048z" fill="#FDFDFD"/>
<path transform="translate(1154,672)" d="m0 0h14l11 6 9 7 13 12 19 19 7 8 18 18 7 8 38 38 7 8 110 110 8 7 10 11 8 13 5 15 7 30 17 80 14 66 3 19v12l-6 10-11 12-8 7-14 11-4 3-7-1-8-6-17-16-15-14-85-85-8-7-10-11-3-2v-2h-2l-7-8-5-4-12-12-5-3-4 1-12 15-11 14-13 16-10 13-11 14-11 13-9 11-14 17-13 17-9 10-8 10-18 22-12 14-8 10-11 14-12 15-11 14-14 17-9 12-11 14-10 13-13 16-11 14-13 16-9 11-11 14-12 14-7 9-13 16-18 22-14 17-11 14-10 12-11 14-13 16-9 10-12 10-14 9-19 8-10 2h-21l-17-4-17-7-18-11-14-12-16-15-7-8-11-12-11-16-8-15-5-15-1-5v-23l3-16 5-13 6-11 10-13 10-10 14-11 13-10 18-14 17-14 11-10 11-9 14-12 10-8 15-13 13-11 28-24 15-13 16-13 14-11 13-11 11-9 14-12 13-11 14-12 11-9 14-12 13-11 14-11 10-9 11-9 15-13 14-12 8-7 11-9 13-11 10-8 14-12 15-13 11-9 10-9 11-9 16-13 4-4-1-4-9-10-8-7-49-49-6-5-4-5-8-7-7-8-8-7-9-10-13-13-9-12-4-10v-8l8-16 7-9 9-10 17-16 52-52 13-10 12-6z" fill="#4E5052"/>
<path transform="translate(996,299)" d="m0 0h9l13 5 16 9 38 25 45 30 25 17 30 20 44 30 16 11 14 10 29 20 23 16 16 11 17 12 25 17 17 12 25 17 19 13 43 29 22 14 43 29 22 15 12 8 36 25 16 11 34 24 13 9 23 16 20 14 12 9 8 7 4 8-3 5-5 4-10 3-9 1-26 1-50 1h-53l-15-1-15-6-21-14-20-14-18-12-23-15-38-25-17-11-20-13-14-9-12-8-25-16-15-10-23-15-42-28-28-19-63-42-35-24-39-26-22-14-15-10-15-9-19-10-8-3h-9l-10 4-15 8-16 10-13 8-23 15-33 22-22 15-33 22-43 29-48 32-52 34-17 11-18 12-23 15-15 10-22 14-21 14-17 11-19 13-23 15-45 30-16 8-6 1h-95l-45-2-16-2-10-5-2-3 1-7 6-8 36-26 15-10 34-24 23-16 12-8 16-11 31-21 12-8 28-19 27-18 16-11 7-7v-97l-1-47 136-1 2 3-1 28v21l14-7 16-11 15-11 12-8 22-15 17-12 28-19 54-36 31-21 35-24 43-29 21-12z" fill="#4E5052"/>
<path transform="translate(731,721)" d="m0 0 20 2 21 5 20 8 20 10 18 12 11 9 18 18 10 14 10 17 8 20 5 17 3 18v38l-4 30-5 28v6l7 8 14 12 16 13 10 8 16 13 13 11 9 7 2 2 4 1v2h-2v2l-44 36-9 8-11 9-9 8-11 9-10 9-14 11-11 10-5 3-5-2-9-12-9-10-12-14-9-11-10-12-7-8-9-8-5-2-37 7-18 2h-29l-22-3-17-4-16-6-21-11-17-12-13-12-7-7-13-17-10-16-8-16-6-15-7-28-1-8v-22l3-11 4-6 5-3 8 1 11 7 18 18 7 8 18 18 12 9 16 8 8 3 17 2h9l16-3 15-6 15-10 13-11 13-12 11-11 11-15 8-17 2-10v-30l-4-12-9-17-10-13-11-12-18-18-7-8-10-12-2-5 1-10 5-5 9-3z" fill="#4E5052"/>
<path transform="translate(1164,1209)" d="m0 0 5 2 5 5 11 10 11 9 11 10 11 9 10 9 11 9 42 36 11 9 11 10 11 9 11 10 11 9 16 15 10 11 11 18 5 12 4 17v19l-4 18-7 15-8 14-10 13-14 15-12 12-22 18-15 9-17 7-15 3h-16l-17-3-15-6-11-6-13-10-21-21-7-8-11-12-9-11-9-10-9-11-12-14-9-11-12-13-9-11-9-10-9-11-11-12-8-10-9-9 2-4 7-7 10-13 11-14 7-8 33-42 8-9 9-11 22-28 11-13 8-10z" fill="#4E5052"/>
<path transform="translate(1249,1410)" d="m0 0h12l9 3 10 5 7 6 8 11 2 6v8l-4 11-4 6-6 7-15 10-7 3h-4v-2l-3 2-5-1-5-3-9-6-8-9-7-14-1-9 2-8 6-10 7-7 11-7z" fill="#FDFDFD"/>
</svg>
