<?xml version="1.0" encoding="UTF-8"?>
<svg version="1.1" viewBox="0 0 2048 1867" width="136" height="124" xmlns="http://www.w3.org/2000/svg">
<path transform="translate(1156,667)" d="m0 0h7l17 9 13 12 104 104 8 7 39 39 8 7 7 8 8 7 7 8 47 47 9 12 5 11 11 49 8 40 5 23 9 44 9 38 1 5v18l-6 9-13 11-7 8-5 5-8 6-7 1-8-4-11-9-65-65v-2l-4-2-48-48-8-7-18-18-8-7-10-8-4-2-22 28-10 13-11 14-10 13-11 14-11 13-22 28-13 16-9 11-11 14-13 17-8 9-8 10-8 9-9 11-9 10-8 11-8 10-9 10-8 10-13 16-8 10-10 12-22 28-11 13-9 11-10 12-14 19-10 13-8 10-11 13-8 10-14 17-14 18-9 11-11 14-8 8-7 8-12 11-11 5-28 8-20 1-27-6-16-8-14-10-16-15-20-20-9-11-9-12-8-13-5-13-3-12-1-7v-10l3-18 7-19 12-17 17-17 12-9 18-14 17-14 13-11 10-9 15-13 16-13 14-11 13-11 20-16 13-11 11-9 12-10 9-7 12-10 8-7 14-12 11-9 16-13 14-13 14-11 13-11 11-9 13-11 10-8 10-9 8-7 14-12 14-11 15-13 10-8 10-9 11-9 14-12 11-9 16-13 17-13 15-13 3-2-2-4-19-19-8-7-47-47-16-15-7-8-15-15-7-8-10-14-5-13 1-7 6-10 10-13 52-52 2-3h2l2-4 7-7 7-8 10-8 8-5 14-7z" fill="#525151"/>
<path transform="translate(997,296)" d="m0 0h8l15 6 21 12 28 19 17 11 60 40 32 22 17 12 39 26 15 11 28 19 23 16 41 28 11 7 19 13 17 12 11 7 15 10 20 14 51 34 80 54 32 22 34 24 19 13 20 14 36 24 12 11 4 6 1 9-4 5-8 3-20 2-106 2-3-1h-7l-9 1h-11l-17-8-21-14-18-13-23-15-25-16-16-11-69-46-16-11-15-10-20-13-40-25-39-26-17-11-41-26-33-22-14-10-17-12-23-15-15-10-25-16-15-10-14-8-12-5-8-2h-11l-13 7-15 11-15 10-22 15-31 21-13 9-17 12-17 11-24 16-22 14-49 32-22 14-19 12-29 19-43 28-11 7-12 8-16 11-17 11-39 26-32 21-20 12-14 10-9 7-13 8-11 2h-125l-27-1-9-8-2-5 2-9 9-10 8-7 12-8 19-13 14-10 28-19 20-14 15-10 47-32 43-29 19-12 18-12 4-3 1-4 1-138 2-7h112l18 2 3 2 1 3v44l9-3 12-6 17-12 14-10 17-12 19-14 17-12 19-13 27-18 11-7 29-19 24-16 19-13 27-18 23-15 19-12 12-6z" fill="#525151"/>
<path transform="translate(717,721)" d="m0 0h31l18 3 19 7 20 9 11 6 11 7 14 11 21 21 10 14 6 12 8 20 7 18 3 12v20l1 22-2 16-3 18-8 10-2 5 1 9 4 10 9 10 24 18 13 12 10 9 10 8 11 7 6 7-1 5-7 8-12 11-9 7-14 12-10 8-16 13-8 7-11 10-10 8-11 10-7 4-7-1-7-6-8-10-13-15-9-11-9-10-12-13-7-8-3-2-6 1-12 4-9 1h-10l-11-1-17 4-9 1-6-1-4-2-24-1-17-2-12-4-16-8-11-6-14-10-12-11-10-10-10-13-12-19-12-24-4-10-6-33v-25l2-10 5-5h8l8 4 14 11 40 40 13 8 13 6 15 4h20l15-4 12-5 11-6 11-9 15-14 10-10 5-6 8-7 7-11 6-16 3-14v-12l-3-14-7-17-9-14-13-15-9-10-13-15-11-13-8-11-2-4 1-5 10-4z" fill="#525151"/>
<path transform="translate(1164,1204)" d="m0 0 5 3 10 9 26 22 16 13 15 12 14 11 13 11 10 8 14 12 10 9 13 11 15 13 11 9 15 14 9 9 11 15 7 15 3 12 1 21-3 20-6 16-8 15-8 10-11 13-13 13-11 9-12 11-14 9-15 7-17 5h-31l-16-4-11-4-10-6-11-9-18-18-7-8-11-12-9-11-10-12-9-11-12-13-9-11-9-10-9-11-13-15-9-11-12-14-10-13-2-6 7-11 7-8 9-12 9-10 11-14 16-20 11-13 10-13 9-11 12-14 10-12 13-17zm91 196-9 2-10 6-10 9-4 6-2 11 1 14 4 9 6 8 8 7 13 5 16-1 12-6 10-10 4-7 1-4v-17l-5-12-6-8-9-8-6-3-6-1z" fill="#525151"/>
</svg>
