<?xml version="1.0" encoding="UTF-8"?>
<svg version="1.1" viewBox="0 0 2048 2048" width="512" height="512" xmlns="http://www.w3.org/2000/svg">
<g fill="currentColor">
  <path transform="translate(1404,375)" d="m0 0h18l11 4 9 6 8 9 6 12 2 11 1 209 3 10 6 10 8 7 10 5 9 2h86l10-3 11-6 8-9 5-11 1-5 1-210 3-13 6-11 9-9 14-7 3-1h19l14 5 22 11 19 11 15 10 19 14 15 13 12 11 13 13 7 8 14 17 13 18 11 18 10 18 11 23 10 26 8 27 5 24 3 19 2 20v50l-3 27-6 31-7 25-10 28-12 26-13 23-9 14-10 14-10 13-9 10-7 8-22 22-11 9-8 7-1 734-1 16-4 11-6 9-7 7-11 6-9 2-11 1h-342l-14-2-12-6-10-9-6-10-3-10-1-14v-734l-7-7-11-9-8-8-8-7-7-7-7-8-9-10-13-17-13-19-10-17-12-23-10-23-10-30-6-24-5-30-2-18-1-31 2-31 4-28 6-27 8-26 9-24 14-29 13-22 11-16 9-12 14-17 12-13 15-15 11-9 16-13 19-13 18-11 23-12 13-6zm303 124-1 126-3 22-5 17-7 16-10 16-9 11-10 10-13 10-18 10-16 6-16 4-13 2h-99l-25-5-16-6-15-8-14-10-11-10-1-2h-2l-2-4-7-8-8-13-8-16-6-19-2-12-1-11-1-125h-3v2l-4 2-5 4v2l-4 2-8 8v2h-2l-7 8-12 15-9 13-11 18-8 16-7 16-9 27-5 22-3 19-1 13v33l2 21 5 26 7 24 10 25 12 23 11 17 9 12 9 11 11 12 12 12 11 9 13 10 12 9 7 8 5 11 1 3 1 13 1 717h255l2-1 1-723 3-12 4-8 9-10 19-14 13-11 10-9 12-12 9-11 10-13 10-15 10-18 11-24 9-28 5-22 3-21 1-13v-29l-3-28-5-24-8-26-9-21-8-16-8-14-11-16-8-10-12-14-13-13-8-7z"/>
  <path transform="translate(958,281)" d="m0 0h19l12 5 14 10 17 14 14 11 11 9 14 11 17 14 14 11 16 13 15 12 14 11 13 11 7 7 5 8 3 8 1 7v8l-3 12-5 9-9 10-10 6-10 3h-17l-11-4-13-9-17-14-14-11-17-14-14-11-16-13-14-11-13-11-12-9-4 1-14 11-13 11-12 9-16 13-10 8-14 11-12 10-9 7-15 12-11 9-14 11-16 13-11 9-14 11-16 13-14 11-11 9-15 12-14 11-11 9-17 13-12 6-7 2h-15l-10-3-10-6-8-8-6-11-3-12v-140h-129v316l-3 11-4 8-9 10-10 9-13 10-13 11-11 8-13 11-9 7-15 12-11 9-14 11-16 13-10 8-14 11-16 13-11 9-14 11-16 13-14 11-4 3h-2l-1 50h133l12 3 11 6 8 8 6 10 3 12v635l746-1 33 1 10 3 12 8 8 10 5 11 1 4v16l-3 10-7 11-9 8-10 5-8 2-11 1h-809l-16-2-12-6-7-6-7-10-4-10-1-5v-635h-133l-10-2-12-6-6-5-8-11-4-11-1-9v-116l2-12 7-13 11-11 10-8 14-11 32-26 14-11 16-13 14-11 16-13 14-11 11-9 14-11 17-14 14-11 16-13 17-13 4-2 1-343 4-12 7-10 9-8 10-5 10-2h226l11 2 10 5 10 9 6 9 3 7 1 5 1 91 1 2 11-9 16-13 14-11 11-9 14-11 16-13 10-8 14-11 16-13 14-11 12-10 14-11 16-13 14-11 11-9 10-8 16-13 14-9z"/>
  <path transform="translate(769,1011)" d="m0 0h394l12 3 9 5 9 8 6 10 3 8 1 6v389l-2 11-6 12-9 10-8 5-15 4h-393l-8-2-12-6-10-10-5-8-3-10-1-18v-371l2-14 4-10 8-10 8-6 11-5zm52 89v293h292l1-293z"/>
</g>
</svg>
